<svg xmlns="http://www.w3.org/2000/svg" viewBox="0 0 50 50"><defs><style>.cls-1{fill:#fff;}</style></defs><title>ig</title><g id="Layer_6" data-name="Layer 6"><circle class="cls-1" cx="37.81" cy="12.28" r="2.84"/><path class="cls-1" d="M25.2,13.09A11.91,11.91,0,1,0,37.11,25,11.93,11.93,0,0,0,25.2,13.09Zm0,19.55A7.63,7.63,0,1,1,32.83,25,7.64,7.64,0,0,1,25.2,32.63Z"/><path class="cls-1" d="M34.66,49.19H15.34A14.55,14.55,0,0,1,.81,34.66V15.34A14.55,14.55,0,0,1,15.34.81H34.66A14.55,14.55,0,0,1,49.19,15.34V34.66A14.55,14.55,0,0,1,34.66,49.19ZM15.34,5.36a10,10,0,0,0-10,10V34.66a10,10,0,0,0,10,10H34.66a10,10,0,0,0,10-10V15.34a10,10,0,0,0-10-10Z"/></g></svg>