<svg id="Layer_1" data-name="Layer 1" xmlns="http://www.w3.org/2000/svg" viewBox="0 0 50 50"><defs><style>.cls-1{fill:none;stroke:#f39347;stroke-miterlimit:10;stroke-width:2px;}.cls-2{fill:#fff;fill-rule:evenodd;}</style></defs><title>search</title><rect class="cls-1" x="1.06" y="1.14" width="47.87" height="47.74" rx="8.75" ry="8.75"/><path class="cls-2" d="M19.58,6.47a14.41,14.41,0,0,1,10.29,4.26A14.89,14.89,0,0,1,34.13,21a14.38,14.38,0,0,1-2.88,8.68L46.47,41.82a1.31,1.31,0,0,1,.14,1.39,1.09,1.09,0,0,1-1.38.13L30,31.1l-.17.16a14.38,14.38,0,0,1-20.42,0A14,14,0,0,1,5.21,21,14.52,14.52,0,0,1,19.58,6.47Zm-1.76,4.4h0c.29,0,.54.26.54.7a.56.56,0,0,1-.54.54A6.6,6.6,0,0,0,12.72,14a7.44,7.44,0,0,0-2.31,5.07.91.91,0,0,1-.68.53.57.57,0,0,1-.54-.53,9.15,9.15,0,0,1,2.73-5.9,8.29,8.29,0,0,1,5.9-2.33ZM28.63,12.1h0a12.72,12.72,0,0,0-18,0A12.49,12.49,0,0,0,7,21a12.63,12.63,0,0,0,3.69,9,13.17,13.17,0,0,0,8.9,3.71,13.21,13.21,0,0,0,9-3.71,12.51,12.51,0,0,0,3.71-9,12.37,12.37,0,0,0-3.71-8.9Z"/></svg>