<svg xmlns="http://www.w3.org/2000/svg" viewBox="0 0 50 50"><defs><style>.cls-1{fill:none;stroke:#fff;stroke-miterlimit:10;stroke-width:2px;}.cls-2{fill:#fff;}</style></defs><title>tw</title><g id="Layer_7" data-name="Layer 7"><rect class="cls-1" x="1.06" y="1.14" width="47.87" height="47.74" rx="8.75" ry="8.75"/><path class="cls-2" d="M42.65,15.06a14.7,14.7,0,0,1-3.6,1c.58-.1,1.43-1.15,1.77-1.57A6.6,6.6,0,0,0,42,12.34c0-.06.05-.14,0-.19a.2.2,0,0,0-.19,0,18.36,18.36,0,0,1-4.27,1.63.29.29,0,0,1-.29-.08,3.48,3.48,0,0,0-.37-.38,7.55,7.55,0,0,0-2.07-1.27,7.2,7.2,0,0,0-3.17-.51,7.58,7.58,0,0,0-3,.85,7.75,7.75,0,0,0-2.43,2,7.45,7.45,0,0,0-1.45,2.9,7.86,7.86,0,0,0-.08,3.06c0,.17,0,.19-.15.17-5.86-.87-10.72-3-14.66-7.46-.17-.2-.26-.2-.4,0-1.73,2.59-.89,6.74,1.27,8.78.29.27.58.54.9.79a7.47,7.47,0,0,1-2.83-.79c-.17-.11-.26,0-.27.15a4.45,4.45,0,0,0,0,.84,7.52,7.52,0,0,0,4.63,6,4.39,4.39,0,0,0,.94.29,8.37,8.37,0,0,1-2.77.09c-.2,0-.28.06-.2.26C12.4,32.81,15,33.8,17,34.37c.26,0,.53,0,.79.11l0,0c-.65,1-2.92,1.74-4,2.11a14.26,14.26,0,0,1-6,.77c-.33,0-.39,0-.48,0s0,.13.09.22c.41.27.83.51,1.26.75a20,20,0,0,0,4,1.62c7.26,2,15.45.53,20.9-4.89,4.28-4.26,5.78-10.12,5.78-16,0-.23.27-.36.43-.48a14.14,14.14,0,0,0,2.85-3,.9.9,0,0,0,.19-.57v0C42.79,15,42.79,15,42.65,15.06Z"/></g></svg>